<svg  fill="none" xmlns="http://www.w3.org/2000/svg">
<path d="M14.3636 3V23.0455H11.0705V8.82273L9.97273 10.2068L7.825 12.975L7.72954 13.0705L7.58636 12.975L5.43864 10.2068L4.34091 8.775V23.0455H1V3H4.34091L7.72954 7.29545L11.0705 3H14.3636Z" fill="#0AD9C6"/>
<path d="M9.30444 13.0705L9.20898 12.975L9.30444 13.0705Z" fill="#0AD9C6"/>
<path d="M9.44787 12.975L9.35241 13.0705H9.30469L9.44787 12.975Z" fill="#0AD9C6"/>
<path d="M39.209 8.61453L30.082 15.316L32.1952 18.194L41.3222 11.4925L39.209 8.61453Z" fill="#0AD9C6"/>
<path d="M27.6672 6C23.8032 6 20.624 9.13028 20.624 13.0431C20.624 16.9071 23.7543 20.0863 27.6672 20.0863C31.5311 20.0863 34.7103 16.956 34.7103 13.0431C34.7103 9.17919 31.5311 6 27.6672 6ZM27.6672 16.2712C25.8575 16.2712 24.4391 14.8039 24.4391 13.0431C24.4391 11.2334 25.9064 9.81503 27.6672 9.81503C29.4279 9.81503 30.8953 11.2824 30.8953 13.0431C30.8953 14.8039 29.4279 16.2712 27.6672 16.2712Z" fill="#0AD9C6"/>
<path d="M44.6393 6C40.7754 6 37.5962 9.13028 37.5962 13.0431C37.5962 16.9071 40.7265 20.0863 44.6393 20.0863C48.5033 20.0863 51.6825 16.956 51.6825 13.0431C51.6336 9.17919 48.5033 6 44.6393 6ZM44.6393 16.2712C42.8296 16.2712 41.4112 14.8039 41.4112 13.0431C41.4112 11.2334 42.8785 9.81503 44.6393 9.81503C46.4001 9.81503 47.8674 11.2824 47.8674 13.0431C47.8674 14.8039 46.4001 16.2712 44.6393 16.2712Z" fill="#0AD9C6"/>
<path d="M68.5977 3.23865V23.2841H65.2568V12.8796L62.4409 10.2068L60.3409 8.15456V23.2841H57V3.23865H60.2932H60.3409L64.2545 7.0091L65.2568 7.96365V3.23865H68.5977Z" fill="#0AD9C6"/>
<rect x="38" y="6" width="6" height="4" fill="#0AD9C6"/>
</svg>
